<svg width="26" height="26" viewBox="0 0 26 26" fill="none" xmlns="http://www.w3.org/2000/svg">
<path d="M16.25 19.5C16.25 21.2949 17.7051 22.75 19.5 22.75C21.2949 22.75 22.75 21.2949 22.75 19.5C22.75 17.7051 21.2949 16.25 19.5 16.25C17.7051 16.25 16.25 17.7051 16.25 19.5ZM16.25 19.5C13.6641 19.5 11.1842 18.4728 9.35571 16.6443C7.52723 14.8158 6.5 12.3359 6.5 9.75M6.5 9.75C8.29493 9.75 9.75 8.29493 9.75 6.5C9.75 4.70507 8.29493 3.25 6.5 3.25C4.70507 3.25 3.25 4.70507 3.25 6.5C3.25 8.29493 4.70507 9.75 6.5 9.75ZM6.5 9.75V22.75" stroke="#FBFCFF" stroke-opacity="0.8" stroke-width="1.8" stroke-linecap="round" stroke-linejoin="round"/>
</svg>
