<svg width="26" height="26" viewBox="0 0 26 26" fill="none" xmlns="http://www.w3.org/2000/svg">
<path d="M19.3677 21.7643C17.5168 23.1091 15.2878 23.8333 13 23.8333C10.7122 23.8333 8.48316 23.1091 6.63232 21.7643M17.749 3.26304C19.8052 4.26594 21.4912 5.89405 22.5653 7.91404C23.6393 9.93402 24.0463 12.2422 23.7279 14.5077M2.27219 14.5076C1.95379 12.2421 2.36078 9.93392 3.43483 7.91393C4.50887 5.89395 6.19483 4.26583 8.25107 3.26294M18.9583 13C18.9583 16.2907 16.2907 18.9583 13 18.9583C9.70929 18.9583 7.04165 16.2907 7.04165 13C7.04165 9.70929 9.70929 7.04165 13 7.04165C16.2907 7.04165 18.9583 9.70929 18.9583 13Z" stroke="#FBFCFF" stroke-opacity="0.8" stroke-width="1.8" stroke-linecap="round" stroke-linejoin="round"/>
</svg>
