<svg width="26" height="26" viewBox="0 0 26 26" fill="none" xmlns="http://www.w3.org/2000/svg">
<path d="M9.75 7.58333H4.98333C4.37661 7.58333 4.07325 7.58333 3.84151 7.70141C3.63767 7.80527 3.47194 7.971 3.36808 8.17484C3.25 8.40658 3.25 8.70994 3.25 9.31667V21.0167C3.25 21.6234 3.25 21.9268 3.36808 22.1585C3.47194 22.3623 3.63767 22.5281 3.84151 22.6319C4.07325 22.75 4.37661 22.75 4.98333 22.75H9.75M9.75 22.75H16.25M9.75 22.75L9.75 4.98333C9.75 4.37661 9.75 4.07325 9.86808 3.84151C9.97194 3.63767 10.1377 3.47194 10.3415 3.36808C10.5732 3.25 10.8766 3.25 11.4833 3.25L14.5167 3.25C15.1234 3.25 15.4268 3.25 15.6585 3.36808C15.8623 3.47194 16.0281 3.63767 16.1319 3.84151C16.25 4.07325 16.25 4.37661 16.25 4.98333V22.75M16.25 11.9167H21.0167C21.6234 11.9167 21.9268 11.9167 22.1585 12.0347C22.3623 12.1386 22.5281 12.3043 22.6319 12.5082C22.75 12.7399 22.75 13.0433 22.75 13.65V21.0167C22.75 21.6234 22.75 21.9268 22.6319 22.1585C22.5281 22.3623 22.3623 22.5281 22.1585 22.6319C21.9268 22.75 21.6234 22.75 21.0167 22.75H16.25" stroke="#FBFCFF" stroke-opacity="0.8" stroke-width="1.6" stroke-linecap="round" stroke-linejoin="round"/>
</svg>
