<svg width="26" height="26" viewBox="0 0 26 26" fill="none" xmlns="http://www.w3.org/2000/svg">
<path d="M9.74996 3.25L8.66663 8.66667M17.3333 3.25L16.25 8.66667M23.8333 8.66667H2.16663M7.36663 22.75H18.6333C20.4535 22.75 21.3635 22.75 22.0588 22.3958C22.6703 22.0842 23.1675 21.587 23.4791 20.9755C23.8333 20.2803 23.8333 19.3702 23.8333 17.55V8.45C23.8333 6.62983 23.8333 5.71974 23.4791 5.02453C23.1675 4.413 22.6703 3.91582 22.0588 3.60423C21.3635 3.25 20.4535 3.25 18.6333 3.25H7.36663C5.54646 3.25 4.63637 3.25 3.94116 3.60423C3.32963 3.91582 2.83244 4.413 2.52085 5.02453C2.16663 5.71974 2.16663 6.62983 2.16663 8.45V17.55C2.16663 19.3702 2.16663 20.2803 2.52085 20.9755C2.83244 21.587 3.32963 22.0842 3.94116 22.3958C4.63637 22.75 5.54646 22.75 7.36663 22.75Z" stroke="#FBFCFF" stroke-opacity="0.8" stroke-width="1.6" stroke-linecap="round" stroke-linejoin="round"/>
</svg>
