<svg width="26" height="26" viewBox="0 0 26 26" fill="none" xmlns="http://www.w3.org/2000/svg">
<path d="M2.16669 13L12.6124 18.2229C12.7545 18.2939 12.8256 18.3294 12.9001 18.3434C12.9662 18.3558 13.0339 18.3558 13.0999 18.3434C13.1744 18.3294 13.2455 18.2939 13.3876 18.2229L23.8334 13M2.16669 18.4167L12.6124 23.6395C12.7545 23.7106 12.8256 23.7461 12.9001 23.7601C12.9662 23.7725 13.0339 23.7725 13.0999 23.7601C13.1744 23.7461 13.2455 23.7106 13.3876 23.6395L23.8334 18.4167M2.16669 7.58332L12.6124 2.36045C12.7545 2.28939 12.8256 2.25386 12.9001 2.23988C12.9662 2.22749 13.0339 2.22749 13.0999 2.23988C13.1744 2.25386 13.2455 2.28939 13.3876 2.36045L23.8334 7.58332L13.3876 12.8062C13.2455 12.8773 13.1744 12.9128 13.0999 12.9268C13.0339 12.9391 12.9662 12.9391 12.9001 12.9268C12.8256 12.9128 12.7545 12.8773 12.6124 12.8062L2.16669 7.58332Z" stroke="#FBFCFF" stroke-width="1.8" stroke-linecap="round" stroke-linejoin="round"/>
</svg>
