<svg width="26" height="26" viewBox="0 0 26 26" fill="none" xmlns="http://www.w3.org/2000/svg">
<path d="M19.5 17.1566C21.0772 17.9489 22.4295 19.2204 23.4165 20.8104C23.612 21.1253 23.7097 21.2827 23.7435 21.5007C23.8122 21.9438 23.5092 22.4884 23.0966 22.6637C22.8936 22.75 22.6652 22.75 22.2083 22.75M17.3333 12.4933C18.9385 11.6955 20.0417 10.0391 20.0417 8.125C20.0417 6.2109 18.9385 4.55445 17.3333 3.75674M15.1667 8.125C15.1667 10.8174 12.9841 13 10.2917 13C7.59928 13 5.41667 10.8174 5.41667 8.125C5.41667 5.43261 7.59928 3.25 10.2917 3.25C12.9841 3.25 15.1667 5.43261 15.1667 8.125ZM2.77251 20.5165C4.49967 17.9233 7.22516 16.25 10.2917 16.25C13.3582 16.25 16.0837 17.9233 17.8108 20.5165C18.1892 21.0847 18.3784 21.3687 18.3566 21.7316C18.3397 22.0141 18.1545 22.36 17.9287 22.5307C17.6388 22.75 17.24 22.75 16.4425 22.75H4.14089C3.34336 22.75 2.94459 22.75 2.65465 22.5307C2.42889 22.36 2.24369 22.0141 2.22673 21.7316C2.20495 21.3687 2.39413 21.0847 2.77251 20.5165Z" stroke="#FBFCFF" stroke-width="1.8" stroke-linecap="round" stroke-linejoin="round"/>
</svg>
