<svg width="26" height="26" viewBox="0 0 26 26" fill="none" xmlns="http://www.w3.org/2000/svg">
<path d="M13 2.16663C16.25 4.33329 17.2497 8.98299 17.3334 13C17.2497 17.0169 16.25 21.6666 13 23.8333M13 2.16663C9.75002 4.33329 8.75037 8.983 8.66669 13C8.75037 17.0169 9.75002 21.6666 13 23.8333M13 2.16663C7.01693 2.16663 2.16669 7.01687 2.16669 13M13 2.16663C18.9831 2.16663 23.8334 7.01687 23.8334 13M13 23.8333C18.9831 23.8333 23.8334 18.983 23.8334 13M13 23.8333C7.01694 23.8333 2.16669 18.983 2.16669 13M23.8334 13C21.6667 16.25 17.017 17.2496 13 17.3333C8.98306 17.2496 4.33335 16.25 2.16669 13M23.8334 13C21.6667 9.74996 17.017 8.75031 13 8.66663C8.98306 8.75031 4.33335 9.74996 2.16669 13" stroke="#FBFCFF" stroke-width="1.6" stroke-linecap="round" stroke-linejoin="round"/>
</svg>
